<svg xmlns="http://www.w3.org/2000/svg" xmlns:xlink="http://www.w3.org/1999/xlink" xmlns:lucid="lucid" width="1728.66" height="1053"><g transform="translate(-331.84331597222223 300)" lucid:page-tab-id="0_0"><path d="M0-500h2500v1500H0z" fill="#fff"/><path d="M980 180h120v120H980z" fill-opacity="0"/><path d="M980 300h120V180H980v120z" stroke="#000" stroke-opacity="0" fill="#198038"/><path d="M1029.4 258.7c0 1.38-1.12 2.5-2.5 2.5s-2.5-1.12-2.5-2.5 1.12-2.5 2.5-2.5 2.5 1.12 2.5 2.5zM1054.52 225.05c-1.66-6.54-7.65-11.33-14.52-11.33-6.87 0-12.86 4.8-14.52 11.33-5.55.7-9.84 5.43-9.84 11.16 0 6.22 5.02 11.24 11.25 11.24h3.75v-3.74h-3.76c-4.15 0-7.5-3.38-7.5-7.5 0-4.1 3.3-7.44 7.4-7.5l1.85.06.24-1.65c.77-5.5 5.55-9.64 11.1-9.64s10.33 4.15 11.1 9.65l.25 1.66 1.66-.03.25-.04c4.05.06 7.36 3.4 7.36 7.5 0 4.13-3.35 7.5-7.5 7.5h-3.75v3.74h3.76c6.24 0 11.26-5.02 11.26-11.23 0-5.72-4.3-10.44-9.84-11.15z" stroke="#000" stroke-opacity="0" fill="#fff"/><path d="M1058.83 251.28h-9.4v3.74h9.4v7.52h-37.53v-7.52h16.87c2.07 0 3.78-1.7 3.78-3.74v-17.2l4.86 4.88 2.62-2.67-9.36-9.38-9.36 9.37 2.6 2.63 4.87-4.85v17.2h-16.88c-2.03 0-3.74 1.7-3.74 3.74v7.52c0 2.05 1.7 3.74 3.74 3.74h37.53c2.07 0 3.73-1.7 3.73-3.74v-7.52c0-2.04-1.66-3.74-3.73-3.74z" stroke="#000" stroke-opacity="0" fill="#fff"/><path d="M1010 210h60v60h-60v-60z" stroke="#000" stroke-opacity="0" fill-opacity="0"/><use xlink:href="#a" transform="matrix(1,0,0,1,950,309) translate(19.286024305555557 21.52777777777778)"/><path d="M680 180h120v120H680z" stroke="#000" stroke-opacity="0" fill="url(#b)"/><path d="M724.97 217.43h3.8v3.8h-3.8v18.63c0-.42.25-.9.58-1.24l5.62-5.6 2.64 2.63-4.28 4.3 4.3 4.28-2.65 2.64-5.62-5.6c-.33-.34-.58-.84-.58-1.33v18.7h3.8v3.8h-3.8v16.82c0 .66-.33 1.24-.9 1.65-.25.18-.58.26-1 .26-.24 0-.5-.08-.82-.17l-22.46-11.3c-.67-.33-1.08-.9-1.08-1.65v-54.33c0-.66.33-1.3.9-1.65l22.55-13.1c.58-.33 1.32-.33 1.9 0 .57.33.9 1 .9 1.65zm56.3-3.7v54.32c0 .74-.4 1.32-1.06 1.65L757.76 281c-.33.08-.58.16-.83.16-.4 0-.74-.08-1-.25-.56-.4-.9-.98-.9-1.64v-16.8h-3.8v-3.8h3.8v-18.72c0 .5-.24 1-.57 1.32l-5.62 5.6-2.64-2.63 4.28-4.3-4.3-4.28 2.65-2.64 5.62 5.62c.33.33.58.82.58 1.24v-18.63h-3.8v-3.8h3.8v-16.8c0-.67.33-1.33.9-1.66.58-.33 1.33-.33 1.9 0l22.54 13.1c.58.34.9 1 .9 1.65zm-60-9.9l-18.84 10.97v52.1l18.83 9.3zm56.3 10.97l-18.83-10.97v72.38l18.83-9.3zm-32.04 16.4l-7.5 20.6-3.56-1.23 7.5-20.6zm-13.04-9.97v-3.8h5.6v3.8zm9.4 0v-3.8h5.6v3.8zm-9.4 41.22v-3.8h5.6v3.8zm9.4 0v-3.8h5.6v3.8z" stroke="#000" stroke-opacity="0" fill="#fff"/><use xlink:href="#c" transform="matrix(1,0,0,1,650,309) translate(35.20941840277778 21.52777777777778)"/><use xlink:href="#d" transform="matrix(1,0,0,1,650,309) translate(23.38216145833333 53.79340277777778)"/><use xlink:href="#e" transform="matrix(1,0,0,1,650,309) translate(65.12478298611111 53.79340277777778)"/><path d="M800.5 240h163.12" stroke="#3a414a" fill="none"/><path d="M800.5 240.47h-.5v-.94h.5z" stroke="#3a414a" stroke-width=".05" fill="#3a414a"/><path d="M978.38 240l-14.26 4.63v-9.26z" stroke="#3a414a" fill="#3a414a"/><path d="M345.46 185.46h109.08v109.08H345.46z" stroke="#000" stroke-opacity="0" fill="#dd344c"/><path d="M340 180h120v120H340z" stroke="#879196" stroke-width="2" fill-opacity="0"/><path d="M416.33 271.37v-2.75h9.54v2.75h-9.54zm-9.54 4.04h28.6v-10.9h-28.6v10.9zm0-51.73v38.16h28.6v-38.16h-28.6zm31.36 0v51.74c0 1.54-1.22 2.76-2.75 2.76h-28.6c-1.46 0-2.68-1.22-2.68-2.75v-51.73c0-1.53 1.22-2.75 2.67-2.75h28.6c1.54 0 2.76 1.22 2.76 2.75zm-65.4-10.92h32.66v5.42h2.75v-6.8c0-.75-.6-1.36-1.38-1.36h-35.42c-.76 0-1.37.62-1.37 1.38v51.82c0 .7.62 1.3 1.38 1.3h30v-2.67h-28.63v-49.08zM367.02 270h34.34v2.74h-34.34c-2.82 0-5.2-2.37-5.2-5.26V207.1c0-2.9 2.38-5.26 5.2-5.26h44.1c2.9 0 5.2 2.37 5.2 5.27v11.07h-2.67V207.1c0-1.37-1.14-2.5-2.52-2.5h-44.1c-1.38 0-2.45 1.13-2.45 2.5v60.38c0 1.37 1.06 2.5 2.43 2.5z" stroke="#000" stroke-opacity="0" fill="#fff"/><use xlink:href="#f" transform="matrix(1,0,0,1,310,309) translate(23.84331597222223 21.52777777777778)"/><use xlink:href="#g" transform="matrix(1,0,0,1,310,309) translate(77.4240451388889 21.52777777777778)"/><path d="M460.5 240h203.12" stroke="#3a414a" fill="none"/><path stroke="#3a414a" stroke-width=".05" fill="#3a414a"/><path d="M678.38 240l-14.26 4.63v-9.26z" stroke="#3a414a" fill="#3a414a"/><path d="M1280-260h120v120h-120z" fill-opacity="0"/><path d="M1336.76-202.88H1280v-48.84c0-4.57 3.63-8.22 8.17-8.28h48.6zm-49.72-7.08h42.68v-43.13h-41.55c-.62 0-1.13.53-1.13 1.15zM1400-202.88h-56.76V-260h48.6c4.53.06 8.16 3.7 8.16 8.28zm-49.72-7.08h42.68v-41.76-.06c.12-.57-.23-1.2-.85-1.3h-41.82zM1336.76-140h-48.6c-4.47 0-8.1-3.6-8.16-8.1V-197h56.76zm-49.72-49.93v41.84c0 .63.5 1.15 1.13 1.15h41.55v-42.98zM1391.83-140h-48.6v-57H1400v48.9c-.06 4.5-3.7 8.1-8.17 8.1zm-41.55-7.07h41.55c.62 0 1.13-.5 1.13-1.08v-41.78h-42.68z" fill="#949494"/><path d="M1379.36-219.63c0-.97-.57-1.73-1.43-2l-38.1-12.86c-.13-.06-.2-.06-.33-.06-.53 0-.94.4-.94.97v67.2c0 .55.4.96.94.96.12 0 .24 0 .37-.07l38.18-15.28c.78-.35 1.3-1.04 1.3-1.94z" fill="url(#h)"/><path d="M1339.28-234.56l-37.72 6.9c-.52.08-.92.56-.92 1.12v51.98c0 .55.36.96.88 1.1l37.72 8.02c.6.14 1.2-.28 1.36-.9v-67.11c0-.56-.48-1.1-1.08-1.1h-.24z" fill="url(#i)"/><path d="M1321.87-224.25v48.42l13.1 2.1v-52.8zm-16.07 2.64v42.34l11.37 2.32v-46.62z" fill="#b796f9" fill-opacity=".5"/><use xlink:href="#j" transform="matrix(1,0,0,1,1250,-131) translate(39.95659722222222 21.52777777777778)"/><path d="M1279.5-200H1043a6 6 0 0 0-6 6v387.62" stroke="#3a414a" fill="none"/><path d="M1280-199.53h-.5v-.94h.5z" stroke="#3a414a" stroke-width=".05" fill="#3a414a"/><path d="M1037 208.38l-4.63-14.26h9.27z" stroke="#3a414a" fill="#3a414a"/><path d="M1500-140h120v120h-120z" fill-opacity="0"/><path d="M1556.76-82.88H1500v-48.84c0-4.57 3.63-8.22 8.17-8.28h48.6zm-49.72-7.08h42.68v-43.13h-41.55c-.62 0-1.13.53-1.13 1.15zM1620-82.88h-56.76V-140h48.6c4.53.06 8.16 3.7 8.16 8.28zm-49.72-7.08h42.68v-41.76-.06c.12-.57-.23-1.2-.85-1.3h-41.82zM1556.76-20h-48.6c-4.47 0-8.1-3.6-8.16-8.1V-77h56.76zm-49.72-49.93v41.84c0 .63.5 1.15 1.13 1.15h41.55v-42.98zM1611.83-20h-48.6v-57H1620v48.9c-.06 4.5-3.7 8.1-8.17 8.1zm-41.55-7.07h41.55c.62 0 1.13-.5 1.13-1.08v-41.78h-42.68z" fill="#949494"/><path d="M1599.36-99.63c0-.97-.57-1.73-1.43-2l-38.1-12.86c-.13-.06-.2-.06-.33-.06-.53 0-.94.42-.94.97v67.2c0 .55.4.96.94.96.12 0 .24 0 .37-.07l38.18-15.28c.78-.35 1.3-1.04 1.3-1.94z" fill="url(#k)"/><path d="M1559.28-114.56l-37.72 6.9c-.52.08-.92.56-.92 1.12v51.98c0 .55.36.96.88 1.1l37.72 8.02c.6.14 1.2-.28 1.36-.9V-113.46c0-.56-.48-1.1-1.08-1.1h-.24z" fill="url(#l)"/><path d="M1541.87-104.25v48.42l13.1 2.1v-52.8zm-16.07 2.64v42.34l11.37 2.32v-46.62z" fill="#b796f9" fill-opacity=".5"/><use xlink:href="#m" transform="matrix(1,0,0,1,1470,-11) translate(6.672092013888886 21.52777777777778)"/><path d="M1060 600h120v120h-120z" fill-opacity="0"/><path d="M1116.76 657.12H1060v-48.84c0-4.57 3.63-8.22 8.17-8.28h48.6zm-49.72-7.08h42.68V606.9h-41.55c-.62 0-1.13.53-1.13 1.15zM1180 657.12h-56.76V600h48.6c4.53.06 8.16 3.7 8.16 8.28zm-49.72-7.08h42.68v-41.76-.05c.12-.58-.23-1.2-.85-1.32h-41.82zM1116.76 720h-48.6c-4.47 0-8.1-3.6-8.16-8.1V663h56.76zm-49.72-49.93v41.84c0 .63.5 1.15 1.13 1.15h41.55v-42.98zM1171.83 720h-48.6v-57H1180v48.9c-.06 4.5-3.7 8.1-8.17 8.1zm-41.55-7.07h41.55c.62 0 1.13-.5 1.13-1.08v-41.78h-42.68z" fill="#949494"/><path d="M1159.36 640.37c0-.97-.57-1.73-1.43-2l-38.1-12.86c-.13-.06-.2-.06-.33-.06-.53 0-.94.4-.94.97v67.2c0 .54.4.96.94.96.12 0 .24 0 .37-.07l38.18-15.28c.78-.35 1.3-1.04 1.3-1.94z" fill="url(#n)"/><path d="M1119.28 625.44l-37.72 6.9c-.52.08-.92.56-.92 1.12v51.98c0 .55.36.96.88 1.1l37.72 8.02c.6.14 1.2-.28 1.36-.9V626.54c0-.56-.48-1.1-1.08-1.1h-.24z" fill="url(#o)"/><path d="M1101.87 635.75v48.42l13.1 2.1v-52.8zm-16.07 2.64v42.34l11.37 2.32v-46.62z" fill="#b796f9" fill-opacity=".5"/><use xlink:href="#p" transform="matrix(1,0,0,1,1030,729) translate(23.35503472222223 21.52777777777778)"/><use xlink:href="#q" transform="matrix(1,0,0,1,1030,729) translate(61.169704861111114 21.52777777777778)"/><path d="M1300 40h120v120h-120z" fill-opacity="0"/><path d="M1356.76 97.12H1300V48.28c0-4.57 3.63-8.22 8.17-8.28h48.6zm-49.72-7.08h42.68V46.9h-41.55c-.62 0-1.13.53-1.13 1.15zM1420 97.12h-56.76V40h48.6c4.53.06 8.16 3.7 8.16 8.28zm-49.72-7.08h42.68V48.28v-.05c.12-.58-.23-1.2-.85-1.32h-41.82zM1356.76 160h-48.6c-4.47 0-8.1-3.6-8.16-8.1V103h56.76zm-49.72-49.93v41.84c0 .63.5 1.15 1.13 1.15h41.55v-42.98zM1411.83 160h-48.6v-57H1420v48.9c-.06 4.5-3.7 8.1-8.17 8.1zm-41.55-7.07h41.55c.62 0 1.13-.5 1.13-1.08v-41.78h-42.68z" fill="#949494"/><path d="M1399.36 80.37c0-.97-.57-1.73-1.43-2l-38.1-12.86c-.13-.06-.2-.06-.33-.06-.53 0-.94.42-.94.97v67.2c0 .55.4.96.94.96.12 0 .24 0 .37-.07l38.18-15.28c.78-.35 1.3-1.04 1.3-1.94z" fill="url(#r)"/><path d="M1359.28 65.44l-37.72 6.9c-.52.08-.92.56-.92 1.12v51.98c0 .55.36.96.88 1.1l37.72 8.02c.6.14 1.2-.28 1.36-.9V66.55c0-.56-.48-1.1-1.08-1.1h-.24z" fill="url(#s)"/><path d="M1341.87 75.75v48.42l13.1 2.1v-52.8zm-16.07 2.64v42.34l11.37 2.32V76.44z" fill="#b796f9" fill-opacity=".5"/><use xlink:href="#t" transform="matrix(1,0,0,1,1270,169) translate(20.978732638888886 21.52777777777778)"/><path d="M1299.5 100.47h-239.24l-.88.07-.85.2-.8.34-.74.45-.67.56-.56.65-.45.74-.33.8-.22.84-.07.88v87.6h-.93v-87.64l.07-1 .24-.98.4-.94.52-.87.66-.78.77-.66.87-.53.94-.4 1-.23.98-.07h239.28z" stroke="#3a414a" stroke-width=".05" fill="#3a414a"/><path d="M1300 100.47h-.5v-.94h.5z" fill="#3a414a"/><path stroke="#3a414a" stroke-width=".05" fill="#3a414a"/><path d="M1054.24 208.38l-4.64-14.26h9.28z" fill="#3a414a"/><path d="M1054.24 209.92l-5.3-16.28h10.6zm-3.98-15.33l3.98 12.25 3.98-12.26zM1135 245.93l1 .23.94.4.87.52.78.66.66.78.53.86.4.94.23 1 .07.98v301.68l.07.88.2.85.34.8.45.75.56.66.65.57.74.45.8.33.84.2.88.07h153.48v.96h-153.52l-1-.08-.98-.24-.94-.4-.87-.52-.78-.66-.66-.77-.53-.86-.4-.94-.23-1-.07-.98V252.34l-.07-.88-.2-.84-.34-.8-.45-.74-.56-.66-.65-.57-.74-.45-.8-.33-.84-.2-.88-.07h-38.5v-.95h38.54z" stroke="#3a414a" stroke-width=".05" fill="#3a414a"/><path d="M1300 560.48h-.5v-.96h.5z" fill="#3a414a"/><path stroke="#3a414a" stroke-width=".05" fill="#3a414a"/><path d="M1094.98 250.96l-14.27-4.64 14.28-4.63z" fill="#3a414a"/><path d="M1095.45 251.6l-16.28-5.28 16.28-5.3zm-13.2-5.28l12.25 3.98v-7.96zM1115 278l1 .24.94.4.87.52.78.66.66.77.53.86.4.94.23 1 .07.98V599.5h-.94V284.42l-.07-.88-.2-.85-.34-.8-.45-.75-.56-.66-.65-.57-.74-.45-.8-.33-.84-.2-.88-.08h-24.7v-.95H1114z" stroke="#3a414a" stroke-width=".05" fill="#3a414a"/><path d="M1120.47 600h-.94v-.5h.94z" fill="#3a414a"/><path stroke="#3a414a" stroke-width=".05" fill="#3a414a"/><path d="M1088.77 283.03l-14.27-4.63 14.27-4.64z" fill="#3a414a"/><path d="M1089.24 283.7l-16.28-5.3 16.28-5.3zm-13.2-5.3l12.25 3.98v-7.96z" stroke="#3a414a" stroke-width=".05" fill="#3a414a"/><path d="M1300 500h120v120h-120z" fill-opacity="0"/><path d="M1356.76 557.12H1300v-48.84c0-4.57 3.63-8.22 8.17-8.28h48.6zm-49.72-7.08h42.68V506.9h-41.55c-.62 0-1.13.53-1.13 1.15zM1420 557.12h-56.76V500h48.6c4.53.06 8.16 3.7 8.16 8.28zm-49.72-7.08h42.68v-41.76-.05c.12-.58-.23-1.2-.85-1.32h-41.82zM1356.76 620h-48.6c-4.47 0-8.1-3.6-8.16-8.1V563h56.76zm-49.72-49.93v41.84c0 .63.5 1.15 1.13 1.15h41.55v-42.98zM1411.83 620h-48.6v-57H1420v48.9c-.06 4.5-3.7 8.1-8.17 8.1zm-41.55-7.07h41.55c.62 0 1.13-.5 1.13-1.08v-41.78h-42.68z" fill="#949494"/><path d="M1399.36 540.37c0-.97-.57-1.73-1.43-2l-38.1-12.86c-.13-.06-.2-.06-.33-.06-.53 0-.94.4-.94.97v67.2c0 .54.4.96.94.96.12 0 .24 0 .37-.07l38.18-15.28c.78-.35 1.3-1.04 1.3-1.94z" fill="url(#u)"/><path d="M1359.28 525.44l-37.72 6.9c-.52.08-.92.56-.92 1.12v51.98c0 .55.36.96.88 1.1l37.72 8.02c.6.14 1.2-.28 1.36-.9V526.54c0-.56-.48-1.1-1.08-1.1h-.24z" fill="url(#v)"/><path d="M1341.87 535.75v48.42l13.1 2.1v-52.8zm-16.07 2.64v42.34l11.37 2.32v-46.62z" fill="#b796f9" fill-opacity=".5"/><use xlink:href="#w" transform="matrix(1,0,0,1,1270,629) translate(50.286458333333336 21.52777777777778)"/><path d="M1720-140h120v120h-120z" fill-opacity="0"/><path d="M1720-140h120v120h-120v-120z" stroke="#000" stroke-opacity="0" fill="#0f62fe"/><path d="M1797.57-55.88c-7.6 0-10.5-2-10.5-5.3-.03-1.12.37-2.18 1.13-3 .75-.82 1.78-1.3 2.9-1.32v-.47c-1.74-.4-2.97-1.96-2.9-3.74 0-2.36 1.98-3.5 4.15-4v-.18c-2.6-1.1-4.24-3.7-4.1-6.52 0-4.6 3.23-7.66 9.32-7.66 1.34 0 2.66.17 3.93.57v-.7c-.13-.9.15-1.82.78-2.47.63-.64 1.52-.92 2.4-.8h3.5v4.2h-4.78v.6c2.27 1.24 3.63 3.67 3.5 6.27 0 4.53-3.2 7.52-9.33 7.52-1.16.03-2.32-.1-3.46-.4-.88.3-1.5 1.1-1.57 2.04 0 1.14.93 1.67 2.92 1.67h6.05c5.53 0 7.9 2.4 7.9 6.45 0 4.7-3.2 7.24-11.83 7.24zm2.8-8.87h-7.66c-.75.53-1.2 1.4-1.18 2.3 0 1.72 1.3 2.8 4.76 2.8h2.76c3.58 0 5.18-.93 5.18-2.82 0-1.43-1.03-2.28-3.84-2.28zm1.26-15.33v-.7c0-2.33-1.43-3.47-4.06-3.47s-4.06 1.14-4.06 3.46v.72c0 2.25 1.44 3.46 4.07 3.46 2.63 0 4.06-1.2 4.06-3.46zM1754.2-95.12h6.4l7.72 14.73h.17l7.63-14.72h6.15V-65h-5.4v-21.63h-.16l-2.33 4.8-6.16 11.38-6.15-11.4-2.34-4.78h-.17V-65h-5.4v-30.12z" stroke="#000" stroke-opacity="0" fill="#fff"/><path d="M1750-110h60v60h-60v-60z" stroke="#000" stroke-opacity="0" fill-opacity="0"/><use xlink:href="#x" transform="matrix(1,0,0,1,1690,-11) translate(37.97092013888889 21.52777777777778)"/><path d="M1620.5-80h83.12" stroke="#3a414a" fill="none"/><path d="M1620.5-79.53h-.5v-.94h.5z" stroke="#3a414a" stroke-width=".05" fill="#3a414a"/><path d="M1718.38-80l-14.26 4.64v-9.28z" stroke="#3a414a" fill="#3a414a"/><path d="M1560 540h120v120h-120z" fill-opacity="0"/><path d="M1616.76 597.12H1560v-48.84c0-4.57 3.63-8.22 8.17-8.28h48.6zm-49.72-7.08h42.68V546.9h-41.55c-.62 0-1.13.53-1.13 1.15zM1680 597.12h-56.76V540h48.6c4.53.06 8.16 3.7 8.16 8.28zm-49.72-7.08h42.68v-41.76-.05c.12-.58-.23-1.2-.85-1.32h-41.82zM1616.76 660h-48.6c-4.47 0-8.1-3.6-8.16-8.1V603h56.76zm-49.72-49.93v41.84c0 .63.5 1.15 1.13 1.15h41.55v-42.98zM1671.83 660h-48.6v-57H1680v48.9c-.06 4.5-3.7 8.1-8.17 8.1zm-41.55-7.07h41.55c.62 0 1.13-.5 1.13-1.08v-41.78h-42.68z" fill="#949494"/><path d="M1659.36 580.37c0-.97-.57-1.73-1.43-2l-38.1-12.86c-.13-.06-.2-.06-.33-.06-.53 0-.94.4-.94.97v67.2c0 .54.4.96.94.96.12 0 .24 0 .37-.07l38.18-15.28c.78-.35 1.3-1.04 1.3-1.94z" fill="url(#y)"/><path d="M1619.28 565.44l-37.72 6.9c-.52.08-.92.56-.92 1.12v51.98c0 .55.36.96.88 1.1l37.72 8.02c.6.14 1.2-.28 1.36-.9V566.54c0-.56-.48-1.1-1.08-1.1h-.24z" fill="url(#z)"/><path d="M1601.87 575.75v48.42l13.1 2.1v-52.8zm-16.07 2.64v42.34l11.37 2.32v-46.62z" fill="#b796f9" fill-opacity=".5"/><use xlink:href="#A" transform="matrix(1,0,0,1,1530,669) translate(23.517795138888886 21.52777777777778)"/><path d="M1145 212.6l1 .24.94.4.87.52.78.66.66.77.53.86.4.94.23 1 .07.98v245l.07.88.2.85.34.8.45.75.56.66.65.57.74.45.8.33.84.2.88.07h358l1 .08.98.24.94.4.87.52.78.66.66.77.53.86.4.94.23 1 .07.98v118l.07.88.2.85.34.8.45.75.56.66.65.57.74.45.8.33.84.2.88.07h33.48v.96h-33.52l-1-.08-.98-.24-.94-.4-.87-.52-.78-.66-.66-.77-.53-.86-.4-.94-.23-1-.07-.98v-118l-.07-.88-.2-.85-.34-.8-.45-.75-.56-.66-.65-.57-.74-.45-.8-.33-.84-.2-.88-.07h-358l-1-.08-.98-.24-.94-.4-.87-.52-.78-.66-.66-.77-.53-.86-.4-.94-.23-1-.07-.98v-245l-.07-.88-.2-.85-.34-.8-.45-.75-.56-.66-.65-.57-.74-.45-.8-.33-.84-.2-.88-.08h-59.1v-.94h59.14z" stroke="#3a414a" stroke-width=".05" fill="#3a414a"/><path d="M1560 600.48h-.5v-.96h.5z" fill="#3a414a"/><path stroke="#3a414a" stroke-width=".05" fill="#3a414a"/><path d="M1084.38 217.63l-14.26-4.63 14.26-4.63z" fill="#3a414a"/><path d="M1084.86 218.3l-16.28-5.3 16.28-5.3zm-13.2-5.3l12.25 3.98v-7.96z" stroke="#3a414a" stroke-width=".05" fill="#3a414a"/><path d="M1840 520h106v120h-106z" fill="url(#B)"/><use xlink:href="#C" transform="matrix(1,0,0,1,1810,649) translate(45.81467013888889 21.52777777777778)"/><use xlink:href="#D" transform="matrix(1,0,0,1,1810,649) translate(33.320095486111114 53.79340277777778)"/><path d="M1680.5 600h73.5a6 6 0 0 0 6-6v-8a6 6 0 0 1 6-6h57.62" stroke="#3a414a" fill="none"/><path d="M1680.5 600.48h-.5v-.96h.5z" stroke="#3a414a" stroke-width=".05" fill="#3a414a"/><path d="M1838.38 580l-14.26 4.63v-9.26z" stroke="#3a414a" fill="#3a414a"/><path d="M860-300h120v120H860z" fill-opacity="0"/><path d="M916.76-242.88H860v-48.84c0-4.57 3.63-8.22 8.17-8.28h48.6zm-49.72-7.08h42.68v-43.13h-41.55c-.62 0-1.13.53-1.13 1.15zM980-242.88h-56.76V-300h48.6c4.53.06 8.16 3.7 8.16 8.28zm-49.72-7.08h42.68v-41.76-.05c.12-.58-.23-1.2-.85-1.32H930.3zM916.76-180h-48.6c-4.47 0-8.1-3.6-8.16-8.1V-237h56.76zm-49.72-49.93v41.84c0 .63.5 1.15 1.13 1.15h41.55v-42.98zM971.83-180h-48.6v-57H980v48.9c-.06 4.5-3.7 8.1-8.17 8.1zm-41.55-7.07h41.55c.62 0 1.13-.5 1.13-1.08v-41.78h-42.68z" fill="#949494"/><path d="M959.36-259.63c0-.97-.57-1.73-1.43-2l-38.1-12.86c-.13-.06-.2-.06-.33-.06-.53 0-.94.42-.94.97v67.2c0 .55.4.96.94.96.12 0 .24 0 .37-.07l38.18-15.28c.78-.35 1.3-1.04 1.3-1.94z" fill="url(#E)"/><path d="M919.28-274.56l-37.72 6.9c-.52.08-.92.56-.92 1.12v51.98c0 .55.36.96.88 1.1l37.72 8.02c.6.14 1.2-.28 1.36-.9v-67.11c0-.56-.48-1.1-1.08-1.1h-.24z" fill="url(#F)"/><path d="M901.87-264.25v48.42l13.1 2.1v-52.8zm-16.07 2.64v42.34l11.37 2.32v-46.62z" fill="#b796f9" fill-opacity=".5"/><use xlink:href="#G" transform="matrix(1,0,0,1,830,-171) translate(53.27582465277777 21.52777777777778)"/><path d="M980.5-240h23.5a6 6 0 0 1 6 6v427.62" stroke="#3a414a" fill="none"/><path d="M980.5-239.53h-.5v-.94h.5z" stroke="#3a414a" stroke-width=".05" fill="#3a414a"/><path d="M1010 208.38l-4.63-14.26h9.26z" stroke="#3a414a" fill="#3a414a"/><path d="M1900 0h120v120h-120z" fill-opacity="0"/><path d="M1956.76 57.12H1900V8.28c0-4.57 3.63-8.22 8.17-8.28h48.6zm-49.72-7.08h42.68V6.9h-41.55c-.62 0-1.13.53-1.13 1.15zM2020 57.12h-56.76V0h48.6c4.53.06 8.16 3.7 8.16 8.28zm-49.72-7.08h42.68V8.28v-.05c.12-.58-.23-1.2-.85-1.32h-41.82zM1956.76 120h-48.6c-4.47 0-8.1-3.6-8.16-8.1V63h56.76zm-49.72-49.93v41.84c0 .63.5 1.15 1.13 1.15h41.55V70.07zM2011.83 120h-48.6V63H2020v48.9c-.06 4.5-3.7 8.1-8.17 8.1zm-41.55-7.07h41.55c.62 0 1.13-.5 1.13-1.08V70.07h-42.68z" fill="#949494"/><path d="M1999.36 40.37c0-.97-.57-1.73-1.43-2l-38.1-12.86c-.13-.06-.2-.06-.33-.06-.53 0-.94.4-.94.97v67.2c0 .55.4.96.94.96.12 0 .24 0 .37-.07l38.18-15.28c.78-.35 1.3-1.04 1.3-1.94z" fill="url(#H)"/><path d="M1959.28 25.44l-37.72 6.9c-.52.08-.92.56-.92 1.12v51.98c0 .55.36.96.88 1.1l37.72 8.02c.6.14 1.2-.28 1.36-.9V26.54c0-.56-.48-1.1-1.08-1.1h-.24z" fill="url(#I)"/><path d="M1941.87 35.75v48.42l13.1 2.1v-52.8zm-16.07 2.64v42.34l11.37 2.32V36.44z" fill="#b796f9" fill-opacity=".5"/><use xlink:href="#J" transform="matrix(1,0,0,1,1870,129) translate(-0.9776475694444287 21.52777777777778)"/><path d="M1720 280h120v120h-120z" stroke="#000" stroke-opacity="0" fill="#8c4fff"/><path d="M1774 335.56h3.04v-6.52l4.13 6.52h3.6l-5.08-7.2 4.67-6.3H1781l-3.96 6v-6H1774v13.5zm45 18.15l-1 .9c-2.04 1.8-4.77 2.63-7.5 2.63-2.65 0-5.38-.82-7.4-2.62l-2.04-1.72c-2.96-2.62-8.03-2.62-11 0l-2.03 1.73c-3.97 3.53-10.84 3.53-14.9 0l-2.02-1.72c-2.88-2.62-8.03-2.62-11 0l-2.02 1.73c-3.98 3.53-10.84 3.53-14.9 0l-1-.9 1.94-2.24 1 .9c2.98 2.55 8.13 2.55 11 0l2.04-1.73c4.06-3.6 10.92-3.6 14.9 0l2.03 1.73c2.95 2.55 8.1 2.55 10.98 0l2.03-1.73c4.07-3.6 10.85-3.6 14.9 0l2.04 1.73c2.96 2.55 8.03 2.55 11 0l1-.9 1.96 2.25zm-3.12 18.1l1.95 2.24-1 .9c-2.04 1.72-4.77 2.62-7.5 2.62-2.73 0-5.46-.9-7.5-2.63l-1.94-1.8c-2.97-2.55-8.12-2.55-11 0l-2.04 1.8c-4.05 3.53-10.84 3.53-14.9 0l-2.02-1.8c-2.97-2.55-8.04-2.55-11 0l-2.03 1.8c-4.04 3.53-10.83 3.53-14.9 0l-1-.9 1.95-2.24 1 .8c2.98 2.63 8.05 2.63 11 0l2.04-1.72c4.05-3.52 10.83-3.52 14.9 0l2.02 1.73c2.88 2.63 8.03 2.63 11 0l2.02-1.72c3.98-3.52 10.84-3.52 14.9 0l2.03 1.73c2.88 2.63 8.03 2.63 11 0l1-.8zm0-9.54l1.95 2.25-1 .9c-4.07 3.54-10.93 3.54-15 0l-1.94-1.7c-2.97-2.64-8.12-2.64-11 0l-2.04 1.7c-2.02 1.8-4.75 2.64-7.48 2.64-2.73 0-5.4-.83-7.4-2.63l-2.04-1.7c-2.97-2.64-8.04-2.64-11 0l-2.03 1.7c-4.04 3.54-10.83 3.54-14.9 0l-1-.9 1.95-2.24 1 .9c2.98 2.55 8.05 2.55 11 0l2.04-1.73c4.05-3.6 10.83-3.6 14.9 0l2.02 1.73c2.88 2.55 8.03 2.55 11 0l2.02-1.73c3.98-3.6 10.84-3.6 14.9 0l2.03 1.73c2.88 2.55 8.03 2.55 11 0l1-.9zm-59.83-25.2c1.64 0 2.97 1.27 2.97 2.93 0 1.7-1.33 3-2.97 3-1.63 0-2.96-1.3-2.96-3 0-1.67 1.32-2.94 2.95-2.94zm22.47-31.5c1.64 0 2.96 1.35 2.96 3s-1.32 3-2.96 3-3.04-1.35-3.04-3 1.4-3 3.04-3zm25.43 34.43c0 1.7-1.33 3-2.97 3-1.64 0-3.04-1.3-3.04-3 0-1.67 1.4-2.94 3.04-2.94 1.64 0 2.97 1.27 2.97 2.93zm-25.43-25.44c1 0 1.87-.3 2.73-.75l15.3 22.28c-.64.68-1.1 1.5-1.34 2.48h-33.37c-.24-.98-.7-1.8-1.33-2.48l15.3-22.27c.77.46 1.7.76 2.72.76zM1756.05 346c2.8 0 5.07-1.9 5.78-4.5h33.38c.63 2.6 2.97 4.5 5.78 4.5 3.28 0 5.93-2.64 5.93-6 0-3.3-2.64-5.94-5.92-5.94-.7 0-1.4.07-1.95.3l-15.52-22.5c.63-.98 1.02-2.1 1.02-3.3 0-3.3-2.73-6-6-6-3.36 0-6 2.7-6 6 0 1.2.38 2.32 1 3.3l-15.52 22.5c-.62-.23-1.24-.3-1.95-.3-3.27 0-6 2.63-6 5.93 0 3.36 2.73 6 6 6z" stroke="#000" stroke-opacity="0" fill="#fff"/><use xlink:href="#K" transform="matrix(1,0,0,1,1690,409) translate(25.655381944444443 21.52777777777778)"/><path d="M1840.5-80H1954a6 6 0 0 1 6 6v57.62" stroke="#3a414a" fill="none"/><path d="M1840.5-79.53h-.5v-.94h.5z" stroke="#3a414a" stroke-width=".05" fill="#3a414a"/><path d="M1960-1.62l-4.63-14.26h9.27z" stroke="#3a414a" fill="#3a414a"/><path d="M2055 59.6l1 .24.94.4.87.52.78.66.66.77.53.86.4.94.23 1 .07.98v268.04l-.07 1-.24.98-.4.94-.52.87-.66.78-.77.66-.86.53-.94.4-1 .23-.98.08h-197.64v-.96h197.6l.88-.06.85-.2.8-.34.75-.45.66-.56.57-.65.45-.74.33-.8.2-.84.08-.88V66.02l-.07-.88-.2-.85-.34-.8-.45-.75-.56-.66-.65-.57-.74-.45-.8-.33-.84-.2-.88-.07h-33.48v-.95h33.52z" stroke="#3a414a" stroke-width=".05" fill="#3a414a"/><path d="M2020.5 60.48h-.5v-.95h.5z" fill="#3a414a"/><path stroke="#3a414a" stroke-width=".05" fill="#3a414a"/><path d="M1855.88 344.63l-14.26-4.63 14.26-4.63z" fill="#3a414a"/><path d="M1856.36 345.3l-16.28-5.3 16.28-5.3zm-13.2-5.3l12.25 3.98v-7.96zM1719.5 340.48h-93.48l-.88.06-.85.2-.8.34-.75.45-.66.56-.57.65-.45.74-.33.8-.2.84-.08.88v177.6h-.94V345.98l.07-1 .24-.98.4-.94.52-.87.66-.78.77-.66.86-.53.94-.4 1-.23.98-.08h93.52z" stroke="#3a414a" stroke-width=".05" fill="#3a414a"/><path d="M1720 340.48h-.5v-.96h.5z" fill="#3a414a"/><path stroke="#3a414a" stroke-width=".05" fill="#3a414a"/><path d="M1620 538.38l-4.63-14.26h9.27z" fill="#3a414a"/><path d="M1620 539.92l-5.3-16.28h10.6zm-3.98-15.33l3.98 12.25 3.98-12.26z" stroke="#3a414a" stroke-width=".05" fill="#3a414a"/><path d="M640-300h120v120H640z" fill-opacity="0"/><path d="M696.76-242.88H640v-48.84c0-4.57 3.63-8.22 8.17-8.28h48.6zm-49.72-7.08h42.68v-43.13h-41.55c-.62 0-1.13.53-1.13 1.15zM760-242.88h-56.76V-300h48.6c4.53.06 8.16 3.7 8.16 8.28zm-49.72-7.08h42.68v-41.76-.05c.12-.58-.23-1.2-.85-1.32H710.3zM696.76-180h-48.6c-4.47 0-8.1-3.6-8.16-8.1V-237h56.76zm-49.72-49.93v41.84c0 .63.5 1.15 1.13 1.15h41.55v-42.98zM751.83-180h-48.6v-57H760v48.9c-.06 4.5-3.7 8.1-8.17 8.1zm-41.55-7.07h41.55c.62 0 1.13-.5 1.13-1.08v-41.78h-42.68z" fill="#949494"/><path d="M739.36-259.63c0-.97-.57-1.73-1.43-2l-38.1-12.86c-.13-.06-.2-.06-.33-.06-.53 0-.94.42-.94.97v67.2c0 .55.4.96.94.96.12 0 .24 0 .37-.07l38.18-15.28c.78-.35 1.3-1.04 1.3-1.94z" fill="url(#L)"/><path d="M699.28-274.56l-37.72 6.9c-.52.08-.92.56-.92 1.12v51.98c0 .55.36.96.88 1.1l37.72 8.02c.6.14 1.2-.28 1.36-.9v-67.11c0-.56-.48-1.1-1.08-1.1h-.24z" fill="url(#M)"/><path d="M681.87-264.25v48.42l13.1 2.1v-52.8zm-16.07 2.64v42.34l11.37 2.32v-46.62z" fill="#b796f9" fill-opacity=".5"/><use xlink:href="#N" transform="matrix(1,0,0,1,610,-171) translate(-44.45638020833334 21.52777777777778)"/><path d="M700.48 8.96l.06.88.2.84.34.8.45.74.56.66.65.56.74.46.8.33.84.2.88.07h281.2l.98.08 1 .24.93.38.86.54.77.66.66.77.53.87.4.93.22 1 .08 1v172.6h-.95V21l-.06-.9-.2-.83-.33-.8-.45-.74-.56-.66-.67-.56-.74-.45-.8-.33-.85-.2-.88-.07h-281.2l-.98-.08-1-.23-.94-.4-.87-.53-.78-.64-.66-.78-.53-.86-.4-.94-.23-1-.08-1V-143h.96zm0-176.96h-.96v-11.5h.96z" stroke="#3a414a" stroke-width=".05" fill="#3a414a"/><path d="M700.48-179.5h-.96v-.5h.96z" fill="#3a414a"/><path stroke="#3a414a" stroke-width=".05" fill="#3a414a"/><path d="M993.2 208.33l-4.65-14.26h9.27z" fill="#3a414a"/><path d="M993.2 209.87l-5.3-16.28h10.58zm-4-15.33l4 12.26 3.97-12.26zM1499.5-79.53h-43.48l-.88.07-.85.2-.8.34-.75.45-.66.56-.57.65-.45.74-.33.8-.2.84-.08.88V53.98l.07.88.2.85.34.8.45.75.56.66.65.57.74.45.8.33.84.2.88.07h97.73v.95h-97.77l-1-.07-.98-.24-.94-.4-.87-.52-.78-.66-.66-.77-.53-.86-.4-.94-.23-1-.07-.98V-74.02l.07-1 .24-.98.4-.94.52-.87.66-.78.77-.66.86-.53.94-.4 1-.23.98-.07h43.52zm384.12 139.06v.95h-277.37v-.95z" stroke="#3a414a" stroke-width=".05" fill="#3a414a"/><path d="M1500-79.53h-.5v-.94h.5z" fill="#3a414a"/><path stroke="#3a414a" stroke-width=".05" fill="#3a414a"/><path d="M1898.38 60l-14.26 4.64v-9.27z" fill="#3a414a"/><path d="M1899.92 60l-16.28 5.3V54.7zm-15.33 3.98l12.25-3.98-12.26-3.98z" stroke="#3a414a" stroke-width=".05" fill="#3a414a"/><g><use xlink:href="#O" transform="matrix(1,0,0,1,1553.7456597222222,49.24479166666667) translate(0 17.22222222222222)"/></g><defs><path d="M180 0v-1490h908v168H370v486h669v168H370v500h727V0H180" id="P"/><path d="M537 14c-226 0-379-139-379-422v-710h180v695c0 172 97 275 253 275 160 0 281-109 281-300v-670h181V0H879v-209C806-46 684 14 537 14" id="Q"/><path d="M158 0v-1118h174v172h12c41-113 157-188 290-188 26 0 70 2 91 3v181c-11-2-60-10-108-10-161 0-279 109-279 260V0H158" id="R"/><path d="M628 24c-324 0-524-230-524-574 0-343 198-582 503-582 237 0 487 146 487 559v75H286c9 234 145 362 343 362 132 0 231-58 273-172l174 48C1024-91 857 24 628 24zM287-650h624c-17-190-120-322-304-322-192 0-309 151-320 322" id="S"/><path d="M158 0v-1490h180v865h22l478-493h223L593-638 1096 0H865L456-523 338-412V0H158" id="T"/><path d="M471 26C259 26 90-98 90-318c0-256 228-303 435-329 202-27 287-16 287-108 0-139-79-219-234-219-161 0-248 86-283 164l-173-57c86-203 278-265 451-265 150 0 419 46 419 395V0H815v-152h-12C765-73 660 26 471 26zm31-159c199 0 310-134 310-271v-155c-30 35-226 55-295 64-131 17-246 59-246 186 0 116 97 176 231 176" id="U"/><path d="M657 26c-323 0-524-166-541-416h195c15 169 171 246 346 246 202 0 356-106 356-265 5-203-294-238-475-293-239-73-380-191-380-389 0-252 224-419 512-419 294 0 499 171 508 396H992c-17-145-151-228-328-228-193 0-321 102-321 242 0 156 175 211 284 241l149 41c160 44 422 134 422 412 0 244-197 432-541 432" id="V"/><path d="M481 0L54-1118h197c107 314 236 620 325 951 87-331 217-637 324-951h197L670 0H481" id="W"/><g id="a"><use transform="matrix(0.010850694444444444,0,0,0.010850694444444444,0,0)" xlink:href="#P"/><use transform="matrix(0.010850694444444444,0,0,0.010850694444444444,13.35720486111111,0)" xlink:href="#Q"/><use transform="matrix(0.010850694444444444,0,0,0.010850694444444444,26.497395833333332,0)" xlink:href="#R"/><use transform="matrix(0.010850694444444444,0,0,0.010850694444444444,34.494357638888886,0)" xlink:href="#S"/><use transform="matrix(0.010850694444444444,0,0,0.010850694444444444,47.45008680555556,0)" xlink:href="#T"/><use transform="matrix(0.010850694444444444,0,0,0.010850694444444444,59.64626736111111,0)" xlink:href="#U"/><use transform="matrix(0.010850694444444444,0,0,0.010850694444444444,72.12456597222221,0)" xlink:href="#V"/><use transform="matrix(0.010850694444444444,0,0,0.010850694444444444,86.38237847222221,0)" xlink:href="#S"/><use transform="matrix(0.010850694444444444,0,0,0.010850694444444444,99.33810763888889,0)" xlink:href="#R"/><use transform="matrix(0.010850694444444444,0,0,0.010850694444444444,108.0512152777778,0)" xlink:href="#W"/><use transform="matrix(0.010850694444444444,0,0,0.010850694444444444,120.10633680555557,0)" xlink:href="#S"/><use transform="matrix(0.010850694444444444,0,0,0.010850694444444444,133.06206597222223,0)" xlink:href="#R"/></g><linearGradient gradientUnits="userSpaceOnUse" id="b" x1="680" y1="300" x2="800" y2="180"><stop offset="0%" stop-color="#b0084d"/><stop offset="100%" stop-color="#ff4f8b"/></linearGradient><path d="M598-1118v154H368v674c0 100 37 144 132 144 23 0 62-6 92-12L629-6c-37 13-88 20-134 20-193 0-307-107-307-290v-688H20v-154h168v-266h180v266h230" id="X"/><path d="M338-1490V0H158v-1490h180" id="Y"/><path d="M338-670V0H158v-1118h173l1 207c72-158 192-221 342-221 226 0 378 139 378 422V0H872v-695c0-172-96-275-252-275-161 0-282 109-282 300" id="Z"/><path d="M677 24c-213 0-288-135-325-197h-20V0H158v-1490h180v551h14c37-59 106-193 324-193 279 0 474 222 474 576 0 356-194 580-473 580zm-27-161c209 0 317-186 317-421 0-232-105-413-317-413-206 0-314 166-314 413 0 249 111 421 314 421" id="aa"/><path d="M538 24C308 24 148-78 108-271l171-41c32 123 123 178 257 178 156 0 256-77 256-169 0-77-54-128-164-154l-186-44c-203-48-300-148-300-305 0-192 176-326 414-326 230 0 351 112 402 269l-163 42c-31-80-94-158-238-158-133 0-233 69-233 162 0 83 57 129 188 160l169 40c203 48 298 149 298 302 0 196-179 339-441 339" id="ab"/><g id="c"><use transform="matrix(0.010850694444444444,0,0,0.010850694444444444,0,0)" xlink:href="#X"/><use transform="matrix(0.010850694444444444,0,0,0.010850694444444444,7.378472222222222,0)" xlink:href="#U"/><use transform="matrix(0.010850694444444444,0,0,0.010850694444444444,19.856770833333332,0)" xlink:href="#Y"/><use transform="matrix(0.010850694444444444,0,0,0.010850694444444444,25.23871527777778,0)" xlink:href="#S"/><use transform="matrix(0.010850694444444444,0,0,0.010850694444444444,38.19444444444444,0)" xlink:href="#Z"/><use transform="matrix(0.010850694444444444,0,0,0.010850694444444444,51.32378472222222,0)" xlink:href="#X"/><use transform="matrix(0.010850694444444444,0,0,0.010850694444444444,58.59375,0)" xlink:href="#aa"/><use transform="matrix(0.010850694444444444,0,0,0.010850694444444444,72.41753472222221,0)" xlink:href="#U"/><use transform="matrix(0.010850694444444444,0,0,0.010850694444444444,84.89583333333333,0)" xlink:href="#ab"/><use transform="matrix(0.010850694444444444,0,0,0.010850694444444444,96.62543402777777,0)" xlink:href="#S"/></g><path d="M52 0l541-1490h220L1361 0h-200l-149-416H398L254 0H52zm404-582h497c-103-290-145-390-251-756-108 377-145 460-246 756" id="ac"/><path d="M180 0v-1490h510c348 0 508 209 508 474 0 266-160 477-507 477H370V0H180zm190-706h312c236 0 327-133 327-310 0-176-91-307-329-307H370v617" id="ad"/><path d="M370-1490V0H180v-1490h190" id="ae"/><g id="d"><use transform="matrix(0.010850694444444444,0,0,0.010850694444444444,0,0)" xlink:href="#ac"/><use transform="matrix(0.010850694444444444,0,0,0.010850694444444444,15.33203125,0)" xlink:href="#ad"/><use transform="matrix(0.010850694444444444,0,0,0.010850694444444444,29.524739583333332,0)" xlink:href="#ae"/></g><path d="M789 20c-398 0-667-293-667-764 0-473 273-766 655-766 315 0 558 198 612 487h-196c-61-191-204-311-415-311-262 0-471 207-471 590 0 380 208 588 482 588 249 0 420-165 425-427H828v-166h572v163c0 370-256 606-611 606" id="af"/><path d="M409 0L70-1118h191c89 329 165 560 243 925 75-353 154-601 240-925h192c85 325 161 564 235 922 77-354 157-598 244-922h191L1267 0h-179c-86-307-176-590-250-913C763-588 675-308 588 0H409" id="ag"/><path d="M140 405l46-156c120 36 205 19 263-150l32-93L54-1118h197c107 313 237 620 324 950 87-331 219-637 326-950h196L606 167c-68 178-176 259-334 259-64 0-113-12-132-21" id="ah"/><g id="e"><use transform="matrix(0.010850694444444444,0,0,0.010850694444444444,0,0)" xlink:href="#af"/><use transform="matrix(0.010850694444444444,0,0,0.010850694444444444,16.57986111111111,0)" xlink:href="#U"/><use transform="matrix(0.010850694444444444,0,0,0.010850694444444444,29.05815972222222,0)" xlink:href="#X"/><use transform="matrix(0.010850694444444444,0,0,0.010850694444444444,36.11111111111111,0)" xlink:href="#S"/><use transform="matrix(0.010850694444444444,0,0,0.010850694444444444,48.66536458333333,0)" xlink:href="#ag"/><use transform="matrix(0.010850694444444444,0,0,0.010850694444444444,66.85112847222221,0)" xlink:href="#U"/><use transform="matrix(0.010850694444444444,0,0,0.010850694444444444,79.00390625,0)" xlink:href="#ah"/></g><path d="M458 0L52-1490h194c108 439 233 855 324 1313 92-459 221-873 331-1313h216c110 438 234 854 330 1307 92-455 216-869 323-1307h196L1558 0h-221l-256-944c-26-95-50-200-73-331-22 122-44 223-73 331L680 0H458" id="ai"/><g id="f"><use transform="matrix(0.010850694444444444,0,0,0.010850694444444444,0,0)" xlink:href="#ai"/><use transform="matrix(0.010850694444444444,0,0,0.010850694444444444,20.768229166666668,0)" xlink:href="#S"/><use transform="matrix(0.010850694444444444,0,0,0.010850694444444444,33.723958333333336,0)" xlink:href="#aa"/></g><path d="M692-1560L212 224H46l480-1784h166" id="aj"/><path d="M180 0v-1490h270l367 940c28 72 75 218 110 339 35-117 81-264 110-339l362-940h271V0h-187c2-448-5-837 7-1287-157 497-311 829-483 1287H842C666-458 514-784 354-1284c12 438 5 843 7 1284H180" id="ak"/><path d="M613 24c-304 0-509-231-509-576 0-350 205-580 509-580 305 0 511 230 511 580 0 345-206 576-511 576zm0-161c226 0 329-195 329-415 0-222-103-419-329-419-223 0-326 196-326 419 0 220 103 415 326 415" id="al"/><path d="M158 0v-1118h180V0H158zm91-1301c-68 0-125-53-125-119s57-119 125-119c69 0 126 53 126 119s-57 119-126 119" id="am"/><g id="g"><use transform="matrix(0.010850694444444444,0,0,0.010850694444444444,0,0)" xlink:href="#aj"/><use transform="matrix(0.010850694444444444,0,0,0.010850694444444444,8.0078125,0)" xlink:href="#ak"/><use transform="matrix(0.010850694444444444,0,0,0.010850694444444444,28.08159722222222,0)" xlink:href="#al"/><use transform="matrix(0.010850694444444444,0,0,0.010850694444444444,41.40625,0)" xlink:href="#aa"/><use transform="matrix(0.010850694444444444,0,0,0.010850694444444444,55.01302083333333,0)" xlink:href="#am"/><use transform="matrix(0.010850694444444444,0,0,0.010850694444444444,60.39496527777778,0)" xlink:href="#Y"/><use transform="matrix(0.010850694444444444,0,0,0.010850694444444444,65.77690972222221,0)" xlink:href="#S"/></g><linearGradient gradientUnits="userSpaceOnUse" id="h" x1="1358.93" y1="-229.72" x2="1358.93" y2="-171.22"><stop offset=".1%" stop-color="#773adc"/><stop offset="52.8%" stop-color="#6635bb"/><stop offset="100%" stop-color="#552f99"/></linearGradient><linearGradient gradientUnits="userSpaceOnUse" id="i" x1="1320.63" y1="-165.44" x2="1320.63" y2="-234.57"><stop offset=".1%" stop-color="#773adc"/><stop offset="30.7%" stop-color="#793ddd"/><stop offset="53.2%" stop-color="#8046e1"/><stop offset="73.1%" stop-color="#8c56e7"/><stop offset="91.5%" stop-color="#9c6def"/><stop offset="100%" stop-color="#a67af4"/></linearGradient><path d="M763 24c-353 0-583-224-583-531v-983h190v968c0 214 149 370 393 370 243 0 391-156 391-370v-968h190v983c0 307-230 531-581 531" id="an"/><g id="j"><use transform="matrix(0.010850694444444444,0,0,0.010850694444444444,0,0)" xlink:href="#X"/><use transform="matrix(0.010850694444444444,0,0,0.010850694444444444,7.378472222222222,0)" xlink:href="#U"/><use transform="matrix(0.010850694444444444,0,0,0.010850694444444444,19.856770833333332,0)" xlink:href="#Y"/><use transform="matrix(0.010850694444444444,0,0,0.010850694444444444,25.23871527777778,0)" xlink:href="#S"/><use transform="matrix(0.010850694444444444,0,0,0.010850694444444444,38.19444444444444,0)" xlink:href="#Z"/><use transform="matrix(0.010850694444444444,0,0,0.010850694444444444,51.32378472222222,0)" xlink:href="#X"/><use transform="matrix(0.010850694444444444,0,0,0.010850694444444444,58.59375,0)" xlink:href="#an"/><use transform="matrix(0.010850694444444444,0,0,0.010850694444444444,75.13020833333333,0)" xlink:href="#U"/><use transform="matrix(0.010850694444444444,0,0,0.010850694444444444,87.60850694444444,0)" xlink:href="#U"/></g><linearGradient gradientUnits="userSpaceOnUse" id="k" x1="1578.93" y1="-109.72" x2="1578.93" y2="-51.22"><stop offset=".1%" stop-color="#773adc"/><stop offset="52.8%" stop-color="#6635bb"/><stop offset="100%" stop-color="#552f99"/></linearGradient><linearGradient gradientUnits="userSpaceOnUse" id="l" x1="1540.63" y1="-45.44" x2="1540.63" y2="-114.57"><stop offset=".1%" stop-color="#773adc"/><stop offset="30.7%" stop-color="#793ddd"/><stop offset="53.2%" stop-color="#8046e1"/><stop offset="73.1%" stop-color="#8c56e7"/><stop offset="91.5%" stop-color="#9c6def"/><stop offset="100%" stop-color="#a67af4"/></linearGradient><path d="M613 24c-304 0-509-231-509-576 0-350 205-580 509-580 216 0 392 114 453 309l-173 49c-33-115-133-197-280-197-223 0-326 196-326 419 0 220 103 415 326 415 150 0 252-85 285-206l172 49C1010-95 832 24 613 24" id="ao"/><path d="M158 418v-1536h174v179h20c37-59 106-193 324-193 279 0 474 222 474 576 0 356-194 580-473 580-213 0-288-135-325-197h-14v591H158zm492-555c209 0 317-186 317-421 0-232-105-413-317-413-206 0-314 166-314 413 0 249 111 421 314 421" id="ap"/><g id="m"><use transform="matrix(0.010850694444444444,0,0,0.010850694444444444,0,0)" xlink:href="#X"/><use transform="matrix(0.010850694444444444,0,0,0.010850694444444444,7.378472222222222,0)" xlink:href="#U"/><use transform="matrix(0.010850694444444444,0,0,0.010850694444444444,19.856770833333332,0)" xlink:href="#Y"/><use transform="matrix(0.010850694444444444,0,0,0.010850694444444444,25.23871527777778,0)" xlink:href="#S"/><use transform="matrix(0.010850694444444444,0,0,0.010850694444444444,38.19444444444444,0)" xlink:href="#Z"/><use transform="matrix(0.010850694444444444,0,0,0.010850694444444444,51.32378472222222,0)" xlink:href="#X"/><use transform="matrix(0.010850694444444444,0,0,0.010850694444444444,58.59375,0)" xlink:href="#V"/><use transform="matrix(0.010850694444444444,0,0,0.010850694444444444,72.8515625,0)" xlink:href="#ao"/><use transform="matrix(0.010850694444444444,0,0,0.010850694444444444,85.546875,0)" xlink:href="#R"/><use transform="matrix(0.010850694444444444,0,0,0.010850694444444444,93.91276041666666,0)" xlink:href="#U"/><use transform="matrix(0.010850694444444444,0,0,0.010850694444444444,106.3910590277778,0)" xlink:href="#ap"/><use transform="matrix(0.010850694444444444,0,0,0.010850694444444444,119.9978298611111,0)" xlink:href="#ap"/><use transform="matrix(0.010850694444444444,0,0,0.010850694444444444,133.60460069444446,0)" xlink:href="#S"/><use transform="matrix(0.010850694444444444,0,0,0.010850694444444444,146.56032986111111,0)" xlink:href="#R"/><use transform="matrix(0.010850694444444444,0,0,0.010850694444444444,154.92621527777777,0)" xlink:href="#ab"/></g><linearGradient gradientUnits="userSpaceOnUse" id="n" x1="1138.93" y1="630.28" x2="1138.93" y2="688.78"><stop offset=".1%" stop-color="#773adc"/><stop offset="52.8%" stop-color="#6635bb"/><stop offset="100%" stop-color="#552f99"/></linearGradient><linearGradient gradientUnits="userSpaceOnUse" id="o" x1="1100.63" y1="694.56" x2="1100.63" y2="625.43"><stop offset=".1%" stop-color="#773adc"/><stop offset="30.7%" stop-color="#793ddd"/><stop offset="53.2%" stop-color="#8046e1"/><stop offset="73.1%" stop-color="#8c56e7"/><stop offset="91.5%" stop-color="#9c6def"/><stop offset="100%" stop-color="#a67af4"/></linearGradient><path d="M783 20c-382 0-661-292-661-764 0-473 279-766 661-766 302 0 548 182 601 489h-190c-42-204-217-313-411-313-268 0-476 208-476 590 0 381 209 588 476 588 195 0 369-110 411-313h190c-52 303-296 489-601 489" id="aq"/><path d="M600 0L52-1490h200c166 485 304 806 458 1336 156-533 285-846 449-1336h202L819 0H600" id="ar"/><g id="p"><use transform="matrix(0.010850694444444444,0,0,0.010850694444444444,0,0)" xlink:href="#aq"/><use transform="matrix(0.010850694444444444,0,0,0.010850694444444444,16.23263888888889,0)" xlink:href="#ar"/></g><path d="M65 0l393-574-370-544h210c88 136 192 297 267 435 67-142 176-302 264-435h206L661-564 1053 0H844c-94-144-206-310-287-458C484-308 366-142 273 0H65" id="as"/><g id="q"><use transform="matrix(0.010850694444444444,0,0,0.010850694444444444,0,0)" xlink:href="#P"/><use transform="matrix(0.010850694444444444,0,0,0.010850694444444444,13.35720486111111,0)" xlink:href="#as"/><use transform="matrix(0.010850694444444444,0,0,0.010850694444444444,25.92230902777778,0)" xlink:href="#X"/><use transform="matrix(0.010850694444444444,0,0,0.010850694444444444,33.19227430555556,0)" xlink:href="#R"/><use transform="matrix(0.010850694444444444,0,0,0.010850694444444444,41.55815972222222,0)" xlink:href="#U"/><use transform="matrix(0.010850694444444444,0,0,0.010850694444444444,54.03645833333333,0)" xlink:href="#ao"/><use transform="matrix(0.010850694444444444,0,0,0.010850694444444444,66.73177083333333,0)" xlink:href="#X"/><use transform="matrix(0.010850694444444444,0,0,0.010850694444444444,73.78472222222221,0)" xlink:href="#al"/><use transform="matrix(0.010850694444444444,0,0,0.010850694444444444,87.10937499999999,0)" xlink:href="#R"/></g><linearGradient gradientUnits="userSpaceOnUse" id="r" x1="1378.93" y1="70.28" x2="1378.93" y2="128.78"><stop offset=".1%" stop-color="#773adc"/><stop offset="52.8%" stop-color="#6635bb"/><stop offset="100%" stop-color="#552f99"/></linearGradient><linearGradient gradientUnits="userSpaceOnUse" id="s" x1="1340.63" y1="134.56" x2="1340.63" y2="65.43"><stop offset=".1%" stop-color="#773adc"/><stop offset="30.7%" stop-color="#793ddd"/><stop offset="53.2%" stop-color="#8046e1"/><stop offset="73.1%" stop-color="#8c56e7"/><stop offset="91.5%" stop-color="#9c6def"/><stop offset="100%" stop-color="#a67af4"/></linearGradient><g id="t"><use transform="matrix(0.010850694444444444,0,0,0.010850694444444444,0,0)" xlink:href="#X"/><use transform="matrix(0.010850694444444444,0,0,0.010850694444444444,7.378472222222222,0)" xlink:href="#U"/><use transform="matrix(0.010850694444444444,0,0,0.010850694444444444,19.856770833333332,0)" xlink:href="#Y"/><use transform="matrix(0.010850694444444444,0,0,0.010850694444444444,25.23871527777778,0)" xlink:href="#S"/><use transform="matrix(0.010850694444444444,0,0,0.010850694444444444,38.19444444444444,0)" xlink:href="#Z"/><use transform="matrix(0.010850694444444444,0,0,0.010850694444444444,51.32378472222222,0)" xlink:href="#X"/><use transform="matrix(0.010850694444444444,0,0,0.010850694444444444,58.59375,0)" xlink:href="#V"/><use transform="matrix(0.010850694444444444,0,0,0.010850694444444444,72.8515625,0)" xlink:href="#S"/><use transform="matrix(0.010850694444444444,0,0,0.010850694444444444,85.80729166666667,0)" xlink:href="#R"/><use transform="matrix(0.010850694444444444,0,0,0.010850694444444444,94.52039930555557,0)" xlink:href="#W"/><use transform="matrix(0.010850694444444444,0,0,0.010850694444444444,107.00954861111113,0)" xlink:href="#am"/><use transform="matrix(0.010850694444444444,0,0,0.010850694444444444,112.39149305555557,0)" xlink:href="#ao"/><use transform="matrix(0.010850694444444444,0,0,0.010850694444444444,125.08680555555557,0)" xlink:href="#S"/></g><linearGradient gradientUnits="userSpaceOnUse" id="u" x1="1378.93" y1="530.28" x2="1378.93" y2="588.78"><stop offset=".1%" stop-color="#773adc"/><stop offset="52.8%" stop-color="#6635bb"/><stop offset="100%" stop-color="#552f99"/></linearGradient><linearGradient gradientUnits="userSpaceOnUse" id="v" x1="1340.63" y1="594.56" x2="1340.63" y2="525.43"><stop offset=".1%" stop-color="#773adc"/><stop offset="30.7%" stop-color="#793ddd"/><stop offset="53.2%" stop-color="#8046e1"/><stop offset="73.1%" stop-color="#8c56e7"/><stop offset="91.5%" stop-color="#9c6def"/><stop offset="100%" stop-color="#a67af4"/></linearGradient><g id="w"><use transform="matrix(0.010850694444444444,0,0,0.010850694444444444,0,0)" xlink:href="#X"/><use transform="matrix(0.010850694444444444,0,0,0.010850694444444444,7.378472222222222,0)" xlink:href="#U"/><use transform="matrix(0.010850694444444444,0,0,0.010850694444444444,19.856770833333332,0)" xlink:href="#Y"/><use transform="matrix(0.010850694444444444,0,0,0.010850694444444444,25.23871527777778,0)" xlink:href="#S"/><use transform="matrix(0.010850694444444444,0,0,0.010850694444444444,38.19444444444444,0)" xlink:href="#Z"/><use transform="matrix(0.010850694444444444,0,0,0.010850694444444444,51.32378472222222,0)" xlink:href="#X"/><use transform="matrix(0.010850694444444444,0,0,0.010850694444444444,58.59375,0)" xlink:href="#ac"/><use transform="matrix(0.010850694444444444,0,0,0.010850694444444444,74.04513888888889,0)" xlink:href="#am"/></g><path d="M611 442c-248 0-391-105-460-228l146-94c47 65 117 165 314 165 178 0 307-82 307-266v-224h-17C863-141 792-18 576-18c-268 0-472-195-472-546 0-346 197-568 476-568 216 0 288 133 326 193h17v-179h175V29c0 289-215 413-487 413zm-5-620c203 0 314-146 314-390 0-237-108-403-314-403-213 0-319 180-319 403 0 230 109 390 319 390" id="at"/><path d="M645 0H180v-1490h484c435 0 692 280 692 742 0 466-257 748-711 748zM370-168h263c363 0 539-218 539-580 0-358-176-574-521-574H370v1154" id="au"/><path d="M180 0v-1490h528c311 0 458 177 458 395 0 191-114 278-244 313v14c139 9 302 137 302 371 0 225-148 397-499 397H180zm190-168h350c232 0 321-102 321-231 0-149-120-277-311-277H370v508zm0-668h328c160 0 286-101 286-255 0-129-87-231-280-231H370v486" id="av"/><g id="x"><use transform="matrix(0.010850694444444444,0,0,0.010850694444444444,0,0)" xlink:href="#ak"/><use transform="matrix(0.010850694444444444,0,0,0.010850694444444444,20.07378472222222,0)" xlink:href="#al"/><use transform="matrix(0.010850694444444444,0,0,0.010850694444444444,33.3984375,0)" xlink:href="#Z"/><use transform="matrix(0.010850694444444444,0,0,0.010850694444444444,46.52777777777778,0)" xlink:href="#at"/><use transform="matrix(0.010850694444444444,0,0,0.010850694444444444,60.15625,0)" xlink:href="#al"/><use transform="matrix(0.010850694444444444,0,0,0.010850694444444444,73.48090277777777,0)" xlink:href="#au"/><use transform="matrix(0.010850694444444444,0,0,0.010850694444444444,89.51822916666666,0)" xlink:href="#av"/></g><linearGradient gradientUnits="userSpaceOnUse" id="y" x1="1638.93" y1="570.28" x2="1638.93" y2="628.78"><stop offset=".1%" stop-color="#773adc"/><stop offset="52.8%" stop-color="#6635bb"/><stop offset="100%" stop-color="#552f99"/></linearGradient><linearGradient gradientUnits="userSpaceOnUse" id="z" x1="1600.63" y1="634.56" x2="1600.63" y2="565.43"><stop offset=".1%" stop-color="#773adc"/><stop offset="30.7%" stop-color="#793ddd"/><stop offset="53.2%" stop-color="#8046e1"/><stop offset="73.1%" stop-color="#8c56e7"/><stop offset="91.5%" stop-color="#9c6def"/><stop offset="100%" stop-color="#a67af4"/></linearGradient><g id="A"><use transform="matrix(0.010850694444444444,0,0,0.010850694444444444,0,0)" xlink:href="#X"/><use transform="matrix(0.010850694444444444,0,0,0.010850694444444444,7.378472222222222,0)" xlink:href="#U"/><use transform="matrix(0.010850694444444444,0,0,0.010850694444444444,19.856770833333332,0)" xlink:href="#Y"/><use transform="matrix(0.010850694444444444,0,0,0.010850694444444444,25.23871527777778,0)" xlink:href="#S"/><use transform="matrix(0.010850694444444444,0,0,0.010850694444444444,38.19444444444444,0)" xlink:href="#Z"/><use transform="matrix(0.010850694444444444,0,0,0.010850694444444444,51.32378472222222,0)" xlink:href="#X"/><use transform="matrix(0.010850694444444444,0,0,0.010850694444444444,58.59375,0)" xlink:href="#V"/><use transform="matrix(0.010850694444444444,0,0,0.010850694444444444,72.8515625,0)" xlink:href="#al"/><use transform="matrix(0.010850694444444444,0,0,0.010850694444444444,86.17621527777777,0)" xlink:href="#Q"/><use transform="matrix(0.010850694444444444,0,0,0.010850694444444444,99.31640625,0)" xlink:href="#R"/><use transform="matrix(0.010850694444444444,0,0,0.010850694444444444,107.31336805555556,0)" xlink:href="#ao"/><use transform="matrix(0.010850694444444444,0,0,0.010850694444444444,120.00868055555556,0)" xlink:href="#S"/></g><image width="10" height="10" id="aw" xlink:href="https://cdn-cashy-static-assets.lucidchart.com/libraries/OracleCloudInfrastructure/preview-pngs/MySQLDatabaseSystem.png" preserveAspectRatio="none"/><pattern id="B" patternUnits="userSpaceOnUse" x="1840" y="520" width="106" height="120"><use xlink:href="#aw" transform="translate(0, 0) scale(10.6,12)"/></pattern><g id="C"><use transform="matrix(0.010850694444444444,0,0,0.010850694444444444,0,0)" xlink:href="#V"/><use transform="matrix(0.010850694444444444,0,0,0.010850694444444444,14.2578125,0)" xlink:href="#al"/><use transform="matrix(0.010850694444444444,0,0,0.010850694444444444,27.58246527777778,0)" xlink:href="#Q"/><use transform="matrix(0.010850694444444444,0,0,0.010850694444444444,40.72265625,0)" xlink:href="#R"/><use transform="matrix(0.010850694444444444,0,0,0.010850694444444444,48.71961805555556,0)" xlink:href="#ao"/><use transform="matrix(0.010850694444444444,0,0,0.010850694444444444,61.41493055555555,0)" xlink:href="#S"/></g><g id="D"><use transform="matrix(0.010850694444444444,0,0,0.010850694444444444,0,0)" xlink:href="#au"/><use transform="matrix(0.010850694444444444,0,0,0.010850694444444444,16.03732638888889,0)" xlink:href="#U"/><use transform="matrix(0.010850694444444444,0,0,0.010850694444444444,28.515625,0)" xlink:href="#X"/><use transform="matrix(0.010850694444444444,0,0,0.010850694444444444,35.89409722222222,0)" xlink:href="#U"/><use transform="matrix(0.010850694444444444,0,0,0.010850694444444444,48.37239583333333,0)" xlink:href="#aa"/><use transform="matrix(0.010850694444444444,0,0,0.010850694444444444,62.19618055555554,0)" xlink:href="#U"/><use transform="matrix(0.010850694444444444,0,0,0.010850694444444444,74.67447916666666,0)" xlink:href="#ab"/><use transform="matrix(0.010850694444444444,0,0,0.010850694444444444,86.4040798611111,0)" xlink:href="#S"/></g><linearGradient gradientUnits="userSpaceOnUse" id="E" x1="938.93" y1="-269.72" x2="938.93" y2="-211.22"><stop offset=".1%" stop-color="#773adc"/><stop offset="52.8%" stop-color="#6635bb"/><stop offset="100%" stop-color="#552f99"/></linearGradient><linearGradient gradientUnits="userSpaceOnUse" id="F" x1="900.63" y1="-205.44" x2="900.63" y2="-274.57"><stop offset=".1%" stop-color="#773adc"/><stop offset="30.7%" stop-color="#793ddd"/><stop offset="53.2%" stop-color="#8046e1"/><stop offset="73.1%" stop-color="#8c56e7"/><stop offset="91.5%" stop-color="#9c6def"/><stop offset="100%" stop-color="#a67af4"/></linearGradient><path d="M180 0v-1490h224l606 953c40 63 108 177 176 312-27-437-7-821-13-1265h190V0h-226C860-448 622-778 356-1262c27 476 11 792 15 1262H180" id="ax"/><path d="M545 20c-263 0-445-160-445-446v-80h190v80c0 182 102 279 255 279 152 0 254-97 254-279v-1064h190v1064c0 286-181 446-444 446" id="ay"/><g id="G"><use transform="matrix(0.010850694444444444,0,0,0.010850694444444444,0,0)" xlink:href="#ax"/><use transform="matrix(0.010850694444444444,0,0,0.010850694444444444,16.74262152777778,0)" xlink:href="#S"/><use transform="matrix(0.010850694444444444,0,0,0.010850694444444444,29.19921875,0)" xlink:href="#as"/><use transform="matrix(0.010850694444444444,0,0,0.010850694444444444,41.76432291666667,0)" xlink:href="#X"/><use transform="matrix(0.010850694444444444,0,0,0.010850694444444444,49.03428819444445,0)" xlink:href="#ay"/><use transform="matrix(0.010850694444444444,0,0,0.010850694444444444,61.71875000000001,0)" xlink:href="#ab"/></g><linearGradient gradientUnits="userSpaceOnUse" id="H" x1="1978.93" y1="30.28" x2="1978.93" y2="88.78"><stop offset=".1%" stop-color="#773adc"/><stop offset="52.8%" stop-color="#6635bb"/><stop offset="100%" stop-color="#552f99"/></linearGradient><linearGradient gradientUnits="userSpaceOnUse" id="I" x1="1940.63" y1="94.56" x2="1940.63" y2="25.43"><stop offset=".1%" stop-color="#773adc"/><stop offset="30.7%" stop-color="#793ddd"/><stop offset="53.2%" stop-color="#8046e1"/><stop offset="73.1%" stop-color="#8c56e7"/><stop offset="91.5%" stop-color="#9c6def"/><stop offset="100%" stop-color="#a67af4"/></linearGradient><path d="M180 0v-1490h510c348 0 508 194 508 460 0 198-88 351-276 417L1256 0h-220L726-579c-117 2-238 0-356 1V0H180zm190-747h312c235 0 327-108 327-283 0-177-92-293-329-293H370v576" id="az"/><path d="M678-1118v154H420V0H240v-964H20v-154h220v-149c0-194 155-293 318-293 85 0 141 18 168 30l-50 154c-19-6-47-17-97-17-111 0-159 58-159 166v109h258" id="aA"/><g id="J"><use transform="matrix(0.010850694444444444,0,0,0.010850694444444444,0,0)" xlink:href="#X"/><use transform="matrix(0.010850694444444444,0,0,0.010850694444444444,7.378472222222222,0)" xlink:href="#U"/><use transform="matrix(0.010850694444444444,0,0,0.010850694444444444,19.856770833333332,0)" xlink:href="#Y"/><use transform="matrix(0.010850694444444444,0,0,0.010850694444444444,25.23871527777778,0)" xlink:href="#S"/><use transform="matrix(0.010850694444444444,0,0,0.010850694444444444,38.19444444444444,0)" xlink:href="#Z"/><use transform="matrix(0.010850694444444444,0,0,0.010850694444444444,51.32378472222222,0)" xlink:href="#X"/><use transform="matrix(0.010850694444444444,0,0,0.010850694444444444,58.59375,0)" xlink:href="#au"/><use transform="matrix(0.010850694444444444,0,0,0.010850694444444444,74.63107638888889,0)" xlink:href="#U"/><use transform="matrix(0.010850694444444444,0,0,0.010850694444444444,87.109375,0)" xlink:href="#X"/><use transform="matrix(0.010850694444444444,0,0,0.010850694444444444,94.48784722222221,0)" xlink:href="#U"/><use transform="matrix(0.010850694444444444,0,0,0.010850694444444444,106.96614583333333,0)" xlink:href="#az"/><use transform="matrix(0.010850694444444444,0,0,0.010850694444444444,120.94184027777777,0)" xlink:href="#S"/><use transform="matrix(0.010850694444444444,0,0,0.010850694444444444,133.89756944444443,0)" xlink:href="#aA"/><use transform="matrix(0.010850694444444444,0,0,0.010850694444444444,142.12239583333331,0)" xlink:href="#am"/><use transform="matrix(0.010850694444444444,0,0,0.010850694444444444,147.50434027777777,0)" xlink:href="#Z"/><use transform="matrix(0.010850694444444444,0,0,0.010850694444444444,160.63368055555554,0)" xlink:href="#S"/><use transform="matrix(0.010850694444444444,0,0,0.010850694444444444,173.5894097222222,0)" xlink:href="#R"/></g><path d="M798-719v166H144v-166h654" id="aB"/><path d="M180 0v-1490h190c0 262 1 526-3 784 217-279 467-523 702-784h249L716-845 1319 0h-225L585-716 370-489V0H180" id="aC"/><g id="K"><use transform="matrix(0.010850694444444444,0,0,0.010850694444444444,0,0)" xlink:href="#X"/><use transform="matrix(0.010850694444444444,0,0,0.010850694444444444,7.378472222222222,0)" xlink:href="#U"/><use transform="matrix(0.010850694444444444,0,0,0.010850694444444444,19.856770833333332,0)" xlink:href="#Y"/><use transform="matrix(0.010850694444444444,0,0,0.010850694444444444,25.23871527777778,0)" xlink:href="#S"/><use transform="matrix(0.010850694444444444,0,0,0.010850694444444444,38.19444444444444,0)" xlink:href="#Z"/><use transform="matrix(0.010850694444444444,0,0,0.010850694444444444,51.32378472222222,0)" xlink:href="#X"/><use transform="matrix(0.010850694444444444,0,0,0.010850694444444444,58.15972222222222,0)" xlink:href="#aB"/><use transform="matrix(0.010850694444444444,0,0,0.010850694444444444,68.38107638888889,0)" xlink:href="#aC"/><use transform="matrix(0.010850694444444444,0,0,0.010850694444444444,83.31163194444444,0)" xlink:href="#U"/><use transform="matrix(0.010850694444444444,0,0,0.010850694444444444,95.78993055555556,0)" xlink:href="#aA"/><use transform="matrix(0.010850694444444444,0,0,0.010850694444444444,104.01475694444444,0)" xlink:href="#T"/><use transform="matrix(0.010850694444444444,0,0,0.010850694444444444,116.2109375,0)" xlink:href="#U"/></g><linearGradient gradientUnits="userSpaceOnUse" id="L" x1="718.93" y1="-269.72" x2="718.93" y2="-211.22"><stop offset=".1%" stop-color="#773adc"/><stop offset="52.8%" stop-color="#6635bb"/><stop offset="100%" stop-color="#552f99"/></linearGradient><linearGradient gradientUnits="userSpaceOnUse" id="M" x1="680.63" y1="-205.44" x2="680.63" y2="-274.57"><stop offset=".1%" stop-color="#773adc"/><stop offset="30.7%" stop-color="#793ddd"/><stop offset="53.2%" stop-color="#8046e1"/><stop offset="73.1%" stop-color="#8c56e7"/><stop offset="91.5%" stop-color="#9c6def"/><stop offset="100%" stop-color="#a67af4"/></linearGradient><path d="M180 0v-1490h190v1322h690V0H180" id="aD"/><g id="N"><use transform="matrix(0.010850694444444444,0,0,0.010850694444444444,0,0)" xlink:href="#X"/><use transform="matrix(0.010850694444444444,0,0,0.010850694444444444,7.378472222222222,0)" xlink:href="#U"/><use transform="matrix(0.010850694444444444,0,0,0.010850694444444444,19.856770833333332,0)" xlink:href="#Y"/><use transform="matrix(0.010850694444444444,0,0,0.010850694444444444,25.23871527777778,0)" xlink:href="#S"/><use transform="matrix(0.010850694444444444,0,0,0.010850694444444444,38.19444444444444,0)" xlink:href="#Z"/><use transform="matrix(0.010850694444444444,0,0,0.010850694444444444,51.32378472222222,0)" xlink:href="#X"/><use transform="matrix(0.010850694444444444,0,0,0.010850694444444444,58.59375,0)" xlink:href="#aD"/><use transform="matrix(0.010850694444444444,0,0,0.010850694444444444,71.15885416666667,0)" xlink:href="#U"/><use transform="matrix(0.010850694444444444,0,0,0.010850694444444444,83.63715277777779,0)" xlink:href="#Z"/><use transform="matrix(0.010850694444444444,0,0,0.010850694444444444,96.76649305555556,0)" xlink:href="#at"/><use transform="matrix(0.010850694444444444,0,0,0.010850694444444444,110.39496527777777,0)" xlink:href="#Q"/><use transform="matrix(0.010850694444444444,0,0,0.010850694444444444,123.53515625,0)" xlink:href="#U"/><use transform="matrix(0.010850694444444444,0,0,0.010850694444444444,136.01345486111111,0)" xlink:href="#at"/><use transform="matrix(0.010850694444444444,0,0,0.010850694444444444,149.64192708333334,0)" xlink:href="#S"/><use transform="matrix(0.010850694444444444,0,0,0.010850694444444444,162.59765625,0)" xlink:href="#ad"/><use transform="matrix(0.010850694444444444,0,0,0.010850694444444444,176.79036458333334,0)" xlink:href="#R"/><use transform="matrix(0.010850694444444444,0,0,0.010850694444444444,184.78732638888889,0)" xlink:href="#al"/><use transform="matrix(0.010850694444444444,0,0,0.010850694444444444,198.11197916666666,0)" xlink:href="#ao"/><use transform="matrix(0.010850694444444444,0,0,0.010850694444444444,210.80729166666666,0)" xlink:href="#S"/><use transform="matrix(0.010850694444444444,0,0,0.010850694444444444,223.76302083333331,0)" xlink:href="#ab"/><use transform="matrix(0.010850694444444444,0,0,0.010850694444444444,235.49262152777777,0)" xlink:href="#ab"/><use transform="matrix(0.010850694444444444,0,0,0.010850694444444444,247.2222222222222,0)" xlink:href="#al"/><use transform="matrix(0.010850694444444444,0,0,0.010850694444444444,260.546875,0)" xlink:href="#R"/></g><path fill="#333" d="M440 22C227 22 68-92 68-313c0-250 202-322 422-343 195-21 271-24 271-105 0-95-63-149-175-149-116 0-187 57-211 129l-275-46c57-194 237-305 487-305 240 0 474 108 474 379V0H777v-155h-10C713-51 605 22 440 22zm85-211c140 0 238-93 238-211v-121c-37 26-156 42-222 51-111 16-185 59-185 149 0 87 70 132 169 132" id="aE"/><path fill="#333" d="M572 22C302 22 117-98 78-306l279-48c29 105 101 156 224 156 114 0 185-48 185-115 0-118-228-130-337-155-215-49-322-150-322-317 0-215 187-347 470-347 265 0 424 116 466 298l-266 47c-24-76-87-130-196-130-98 0-174 46-174 113 0 56 38 95 144 117l201 40c216 44 320 143 320 302 0 220-207 367-500 367" id="aF"/><path fill="#333" d="M120 396l69-226c123 42 245 23 254-107l8-60L31-1118h319c87 288 199 559 259 872 72-308 185-583 277-872h315L726 132c-68 181-186 294-410 294-79 0-153-13-196-30" id="aG"/><path fill="#333" d="M428-647V0H128v-1118h283l4 231c63-156 176-245 348-245 232 0 384 159 384 421V0H847v-659c0-139-76-222-202-222-128 0-217 86-217 234" id="aH"/><path fill="#333" d="M628 22C291 22 81-210 81-554c0-346 210-578 547-578 265 0 455 142 497 372l-279 52c-25-116-99-188-215-188-160 0-244 139-244 341 0 200 84 341 244 341 116 0 193-74 217-195l279 51C1085-123 896 22 628 22" id="aI"/><g id="O"><use transform="matrix(0.008680555555555556,0,0,0.008680555555555556,0,0)" xlink:href="#aE"/><use transform="matrix(0.008680555555555556,0,0,0.008680555555555556,10.321180555555555,0)" xlink:href="#aF"/><use transform="matrix(0.008680555555555556,0,0,0.008680555555555556,20.27777777777778,0)" xlink:href="#aG"/><use transform="matrix(0.008680555555555556,0,0,0.008680555555555556,30.98090277777778,0)" xlink:href="#aH"/><use transform="matrix(0.008680555555555556,0,0,0.008680555555555556,42.048611111111114,0)" xlink:href="#aI"/></g></defs></g></svg>